<svg width="32" height="32" viewBox="0 0 32 32" fill="none" xmlns="http://www.w3.org/2000/svg">
<rect width="32" height="32" rx="10" fill="white"/>
<g clip-path="url(#clip0_1476_55)">
<path d="M16.4292 25C16.446 25 16.4622 24.9996 16.4797 24.9988C16.869 24.9773 17.2026 24.7134 17.3119 24.3388L18.9748 18.6596L25.0479 17.4561C25.4315 17.3799 25.725 17.0696 25.7799 16.6827C25.8347 16.296 25.6395 15.9162 25.2919 15.7366L10.5536 8.10317C10.2119 7.92507 9.79358 7.98152 9.50901 8.24243C9.22361 8.50403 9.1336 8.91542 9.28178 9.2724L15.5807 24.4327C15.7236 24.7782 16.0592 25 16.4292 25Z" fill="black"/>
</g>
<defs>
<clipPath id="clip0_1476_55">
<rect width="17" height="17" fill="white" transform="matrix(-1 0 0 1 26 8)"/>
</clipPath>
</defs>
</svg>
